<?xml version="1.0" encoding="UTF-8" standalone="no"?>
<svg
   version="1.0"
   width="571pt"
   height="571pt"
   viewBox="0 0 571.00001 571"
   preserveAspectRatio="xMidYMid"
   id="svg22"
   sodipodi:docname="trx_single_logo.svg"
   inkscape:version="1.2.2 (732a01da63, 2022-12-09, custom)"
   inkscape:export-filename="../1a133847/TRX_new.png"
   inkscape:export-xdpi="96"
   inkscape:export-ydpi="96"
   xmlns:inkscape="http://www.inkscape.org/namespaces/inkscape"
   xmlns:sodipodi="http://sodipodi.sourceforge.net/DTD/sodipodi-0.dtd"
   xmlns="http://www.w3.org/2000/svg"
   xmlns:svg="http://www.w3.org/2000/svg"
   xmlns:rdf="http://www.w3.org/1999/02/22-rdf-syntax-ns#"
   xmlns:cc="http://creativecommons.org/ns#"
   xmlns:dc="http://purl.org/dc/elements/1.1/">
  <defs
     id="defs26">
    <clipPath
       clipPathUnits="userSpaceOnUse"
       id="clipPath1067">
      <rect
         style="opacity:0.99;fill:#f2f2f2;fill-opacity:1;stroke:#000000;stroke-width:7.3873;stroke-opacity:1"
         id="rect1069"
         width="5758.7832"
         height="5820.4307"
         x="543.32886"
         y="-6403.645"
         transform="scale(1,-1)" />
    </clipPath>
  </defs>
  <sodipodi:namedview
     pagecolor="#ffffff"
     bordercolor="#666666"
     borderopacity="1"
     objecttolerance="10"
     gridtolerance="10"
     guidetolerance="10"
     inkscape:pageopacity="0"
     inkscape:pageshadow="2"
     inkscape:window-width="1846"
     inkscape:window-height="1016"
     id="namedview24"
     showgrid="false"
     inkscape:snap-text-baseline="true"
     inkscape:zoom="0.93517813"
     inkscape:cx="292.99231"
     inkscape:cy="389.76532"
     inkscape:window-x="74"
     inkscape:window-y="27"
     inkscape:window-maximized="1"
     inkscape:current-layer="layer4"
     inkscape:showpageshadow="2"
     inkscape:pagecheckerboard="0"
     inkscape:deskcolor="#d1d1d1"
     inkscape:document-units="pt" />
  <metadata
     id="metadata2">
Created by potrace 1.15, written by Peter Selinger 2001-2017
<rdf:RDF>
  <cc:Work
     rdf:about="">
    <dc:format>image/svg+xml</dc:format>
    <dc:type
       rdf:resource="http://purl.org/dc/dcmitype/StillImage" />
  </cc:Work>
</rdf:RDF>
</metadata>
  <g
     inkscape:groupmode="layer"
     id="layer4"
     inkscape:label="Black"
     style="display:inline">
    <circle
       style="display:inline;fill:#000000;fill-opacity:1;fill-rule:nonzero;stroke:none;stroke-width:0.754126"
       id="path2600"
       cx="285.5"
       cy="285.5"
       r="285.5"
       inkscape:label="Background" />
  </g>
  <g
     inkscape:groupmode="layer"
     id="layer5"
     inkscape:label="Green outline"
     style="stroke:none;fill:#000000;fill-opacity:1">
    <path
       id="path4402"
       style="fill:#16a085;fill-opacity:1;fill-rule:nonzero;stroke:none;stroke-width:0.662372"
       d="M 293.42631 10.936401 A 265.62714 265.58264 6.3866565e-12 0 0 27.799519 276.51835 A 265.62714 265.58264 6.3866565e-12 0 0 293.42633 542.10155 A 265.62714 265.58264 6.3866565e-12 0 0 559.05308 276.51813 A 265.62714 265.58264 6.3866565e-12 0 0 293.42631 10.936401 z M 293.42532 28.018886 A 248.49953 248.54115 90 0 1 541.96774 276.51866 A 248.49953 248.54115 90 0 1 293.42581 525.01764 A 248.49953 248.54115 90 0 1 44.884896 276.51929 A 248.49953 248.54115 90 0 1 293.42532 28.018886 z "
       transform="matrix(0.99951995,0.03098183,-0.02815436,0.99960359,0,0)"
       inkscape:label="Inner circle" />
    <path
       id="path2600-7"
       style="display:inline;fill:#16a085;fill-opacity:1;fill-rule:nonzero;stroke:#000000;stroke-width:0.75;stroke-opacity:1;stroke-dasharray:none"
       d="M 285.49951 0 A 285.5 285.5 0 0 0 0 285.49951 A 285.5 285.5 0 0 0 285.49951 571.00049 A 285.5 285.5 0 0 0 571.00049 285.49951 A 285.5 285.5 0 0 0 285.49951 0 z M 285.49951 6.3852539 A 279.1142 279.1142 0 0 1 564.61377 285.49951 A 279.1142 279.1142 0 0 1 285.49951 564.61377 A 279.1142 279.1142 0 0 1 6.3852539 285.49951 A 279.1142 279.1142 0 0 1 285.49951 6.3852539 z "
       inkscape:label="Outer circle" />
  </g>
  <g
     inkscape:groupmode="layer"
     id="layer3"
     inkscape:label="Helmet"
     style="display:inline">
    <path
       style="display:inline;opacity:0.99;fill:#16a085;fill-opacity:1;stroke:#000000;stroke-width:0.498576;stroke-opacity:1"
       d="m 354.45675,468.79865 c -9.20196,-1.4726 -16.76269,-5.56995 -24.1809,-13.10424 -9.21291,-9.35705 -14.00652,-18.84284 -24.16678,-47.82219 -3.91936,-11.17887 -7.99386,-22.09316 -9.05445,-24.25397 -2.5409,-5.17671 -6.31424,-9.24326 -10.47952,-11.29382 -2.83834,-1.39731 -3.84902,-1.61545 -8.42824,-1.81911 -5.35663,-0.23823 -10.48174,0.43549 -12.39169,1.62896 -0.57311,0.35812 -1.93169,0.80771 -3.01908,0.99911 -2.82233,0.49677 -4.39511,1.43262 -6.49399,3.8641 -4.563,5.28609 -7.10153,12.93467 -8.98133,27.0608 -1.56354,11.74955 -2.03512,14.50469 -3.26835,19.09504 -3.48013,12.95379 -10.93114,18.10025 -30.13396,20.8137 -6.38022,0.90155 -18.78557,1.02414 -23.1707,0.22896 -5.98336,-1.08499 -10.16905,-3.82686 -12.87897,-8.43645 -1.27004,-2.16035 -1.3435,-2.63439 -1.3435,-8.67036 v -6.38505 l 6.41455,-12.61206 6.41455,-12.61205 -0.25519,-17.14961 c -0.20232,-13.59674 -0.42734,-17.87265 -1.08616,-20.63964 -2.35687,-9.89863 -2.45699,-10.97805 -2.4741,-26.67379 -0.0189,-17.36852 0.42372,-21.03401 3.74608,-31.0211 7.33481,-22.04854 20.95058,-41.95666 37.09783,-54.24208 14.55985,-11.07768 30.65404,-18.09086 49.35897,-21.50859 4.99018,-0.91179 7.84428,-1.09528 17.20086,-1.10582 10.35988,-0.0117 11.71372,0.0922 17.69943,1.35788 33.55726,7.09569 60.90162,28.75461 76.70477,60.75629 2.07025,4.19231 4.79905,10.67197 6.06397,14.39923 l 2.29989,6.77685 7.19859,0.64148 7.19859,0.64147 -7.5e-4,4.04892 c -0.002,6.95302 -1.70399,8.63573 -8.84894,8.74525 l -2.6173,0.0401 v 15.90107 c 0,14.03978 -0.0923,15.9365 -0.78864,16.20371 -1.01639,0.39003 -5.87499,0.39276 -6.88841,0.004 -1.36684,-0.52451 -2.85349,-3.58147 -3.307,-6.80008 -0.51267,-3.6386 -1.30895,-4.50476 -5.15434,-5.60671 -5.23411,-1.4999 -33.91395,-4.2538 -45.93425,-4.41071 -9.19386,-0.12001 -10.02585,0.58159 -8.53233,7.19506 1.05057,4.65209 3.25791,8.69132 6.9536,12.72453 6.97795,7.6152 13.88075,11.02639 25.25385,12.47981 7.20317,0.92053 8.15917,1.2088 9.17958,2.76796 0.83932,1.28248 2.35002,9.10657 5.03419,26.07282 3.43089,21.6861 4.92422,27.63161 7.98084,31.77475 1.44412,1.95745 2.56761,2.75247 6.60332,4.67275 7.65901,3.64432 8.07188,4.32383 5.88992,9.69365 -3.68759,9.07522 -13.26765,18.83922 -22.4194,22.84985 -5.03406,2.20611 -13.36698,3.47003 -17.99486,2.72942 z"
       id="path903"
       inkscape:connector-curvature="0" />
    <path
       style="display:inline;opacity:0.99;fill:#16a085;fill-opacity:1;stroke:#000000;stroke-width:0.498576;stroke-opacity:1"
       d="m 223.6425,230.09704 c -3.78887,-2.54973 -9.66716,-7.45807 -14.02683,-11.71234 -4.7876,-4.67186 -5.6546,-6.75798 -4.07616,-9.80772 1.5831,-3.05873 8.36121,-9.24578 17.5426,-16.01286 16.51238,-12.17034 33.88456,-19.23623 53.09829,-21.597 5.65218,-0.69448 19.95012,-0.69795 26.17522,-0.006 16.49724,1.8328 33.69468,6.92058 36.17188,10.70127 0.71255,1.08748 0.71412,1.34412 0.0166,2.69311 -1.95896,3.78822 -15.73358,21.38888 -21.4679,27.43083 l -3.48111,3.66787 -3.48197,-0.3431 c -7.3399,-0.72326 -26.1208,-0.33758 -34.18195,0.70195 -12.61244,1.62645 -19.61647,3.75447 -34.89996,10.60358 -7.68582,3.44431 -12.78172,5.38417 -14.1439,5.38417 -0.39242,0 -1.85256,-0.76653 -3.24476,-1.70341 z"
       id="path901"
       inkscape:connector-curvature="0" />
    <path
       style="display:inline;opacity:0.99;fill:#16a085;fill-opacity:1;stroke:#000000;stroke-width:0.498576;stroke-opacity:1"
       d="m 125.2695,400.94219 c -3.56586,-4.44824 -4.78204,-6.4026 -8.09508,-13.00862 -9.59843,-19.13872 -18.164539,-48.83104 -20.759899,-71.95914 -0.32836,-2.92617 -0.45283,-5.89485 -0.27659,-6.59705 0.44877,-1.78805 1.99629,-2.44653 11.836639,-5.03658 4.75551,-1.25167 8.84341,-2.47281 9.08423,-2.71362 1.21242,-1.21244 -1.6407,-2.29135 -11.35053,-4.29225 -10.807559,-2.22711 -10.931699,-2.4286 -10.579939,-17.17266 0.46111,-19.32744 2.65635,-32.70631 8.630709,-52.59972 2.38678,-7.9475 6.27353,-17.91562 8.12236,-20.83092 1.34838,-2.12616 1.67331,-2.35265 3.37277,-2.35093 1.03435,7.5e-4 5.24602,0.7956 9.35927,1.76571 11.01156,2.59704 14.74979,3.34252 15.0842,3.00811 0.46243,-0.46243 -2.07391,-2.93976 -8.60271,-8.40254 -9.13488,-7.64333 -10.22081,-8.77487 -10.22081,-10.65017 0,-0.88274 0.79616,-3.1357 1.76924,-5.00659 2.22999,-4.28749 11.21081,-17.73921 14.91992,-22.34748 9.47474,-11.7716 28.94018,-29.91867 34.20964,-31.89266 0.44038,-0.16497 4.78243,3.65878 11.60171,10.21686 10.26856,9.87521 12.55544,11.85015 13.096,11.30959 0.33814,-0.33814 -1.67727,-5.44719 -6.51012,-16.50301 -2.61206,-5.97546 -4.45039,-10.88923 -4.6248,-12.36193 -0.2855,-2.41058 -0.25574,-2.47682 2.15861,-4.80393 5.70504,-5.49894 31.49252,-18.03429 46.55645,-22.63121 16.70227,-5.09687 35.794,-7.71333 42.56474,-5.83334 2.96074,0.82209 3.92474,2.28984 6.04242,9.19986 1.66125,5.42069 2.71019,7.43168 3.46784,6.6484 0.0991,-0.10243 0.64647,-2.94025 1.21644,-6.30627 0.56997,-3.366 1.53011,-7.26789 2.13365,-8.67087 l 1.09734,-2.55084 10.75231,0.2971 c 14.67201,0.40541 31.76881,2.79344 38.7972,5.41907 l 2.61752,0.97784 -0.006,4.07743 c -0.004,2.24258 -0.33532,7.44281 -0.73766,11.55606 -1.01257,10.35184 -0.99011,12.71795 0.12052,12.698 1.11156,-0.0199 1.59141,-0.70716 6.60368,-9.45727 6.39193,-11.15863 7.71853,-12.96296 9.5307,-12.96296 6.7245,0 34.42929,14.43417 43.78026,22.80947 l 2.67668,2.3974 -2.39265,4.22349 c -4.14677,7.31985 -16.15612,24.81789 -27.19383,39.62235 -6.43829,8.63543 -9.35674,11.85557 -11.26234,12.42651 -1.56747,0.46964 -4.31334,-0.63625 -11.59332,-4.66921 -14.56839,-8.0706 -30.07683,-13.42915 -47.21894,-16.31535 -7.48046,-1.25948 -23.74868,-1.24281 -30.86115,0.0316 -7.17179,1.28506 -17.16713,3.91285 -22.93448,6.02952 -12.21952,4.48469 -27.89072,13.40745 -38.6396,22.00037 -10.58693,8.46345 -21.86695,21.30087 -29.51921,33.59484 -9.12081,14.6533 -13.39341,26.36197 -18.10255,49.60826 -3.27044,16.14428 -3.40882,19.17156 -3.05699,66.87797 0.26322,35.6909 0.2052,41.27804 -0.45155,43.48959 -1.91802,6.45866 -12.99243,14.31153 -27.11508,19.2273 -2.81228,0.97889 -5.4026,1.7798 -5.75627,1.7798 -0.35368,0 -1.85706,-1.51443 -3.34086,-3.36538 z"
       id="path899"
       inkscape:connector-curvature="0" />
  </g>
</svg>
